<svg xmlns="http://www.w3.org/2000/svg" width="38" height="80" viewBox="0 0 38 80">
  <g id="Group_74" data-name="Group 74" transform="translate(-457.494 570.528)">
    <g id="Group_68" data-name="Group 68">
      <path id="Path_53" data-name="Path 53" d="M480.075-547.528c6.434,0,8.032.543,10.337,6.3,2.674,6.684,2.354,26.689,1.287,31.808-1.238,5.934-4.8,15.888-14.77,15.888h-.879c-9.96,0-13.523-9.954-14.761-15.888-1.067-5.119-1.387-25.124,1.287-31.808,2.305-5.761,3.9-6.3,10.337-6.3h7.162m0-3h-7.162c-7.01,0-10.156.776-13.122,8.19s-2.607,27.931-1.438,33.534,5.1,18.276,17.7,18.276h.879c12.6,0,16.538-12.672,17.707-18.276s1.527-26.121-1.439-33.534-6.112-8.19-13.122-8.19Z" fill="#1239a5"/>
    </g>
    <g id="Group_69" data-name="Group 69">
      <rect id="Rectangle_40" data-name="Rectangle 40" width="35.202" height="3" transform="translate(458.85 -525.294)" fill="#1239a5"/>
    </g>
    <g id="Group_70" data-name="Group 70">
      <path id="Path_54" data-name="Path 54" d="M476.512-541.095a.7.7,0,0,1,.7.7v8.324a.7.7,0,0,1-.7.7.7.7,0,0,1-.7-.7V-540.4a.7.7,0,0,1,.7-.7m0-3a3.7,3.7,0,0,0-3.7,3.7v8.324a3.7,3.7,0,0,0,3.7,3.7,3.7,3.7,0,0,0,3.7-3.7V-540.4a3.7,3.7,0,0,0-3.7-3.7Z" fill="#1239a5"/>
    </g>
    <g id="Group_71" data-name="Group 71">
      <rect id="Rectangle_41" data-name="Rectangle 41" width="3" height="6.675" transform="translate(475.013 -529.2)" fill="#1239a5"/>
    </g>
    <g id="Group_72" data-name="Group 72">
      <rect id="Rectangle_42" data-name="Rectangle 42" width="3" height="6.675" transform="translate(475.013 -549.559)" fill="#1239a5"/>
    </g>
    <g id="Group_73" data-name="Group 73">
      <path id="Path_55" data-name="Path 55" d="M475.915-552.528a1.5,1.5,0,0,1-1.5-1.5,3.156,3.156,0,0,0-3.259-3.035h-6.191a3.918,3.918,0,0,1-3.971-3.855,3.919,3.919,0,0,1,3.971-3.855h22.51a1.455,1.455,0,0,0,1.519-1.377,1.456,1.456,0,0,0-1.519-1.378h-7.65a1.5,1.5,0,0,1-1.5-1.5,1.5,1.5,0,0,1,1.5-1.5h7.65a4.455,4.455,0,0,1,4.519,4.378,4.454,4.454,0,0,1-4.519,4.377h-22.51a.92.92,0,0,0-.971.855.92.92,0,0,0,.971.855h6.191a6.157,6.157,0,0,1,6.259,6.035A1.5,1.5,0,0,1,475.915-552.528Z" fill="#1239a5"/>
    </g>
  </g>
</svg>
