<svg xmlns="http://www.w3.org/2000/svg" width="80" height="74" viewBox="0 0 80 74">
  <g id="Group_106" data-name="Group 106" transform="translate(-613.095 567.417)">
    <g id="Group_92" data-name="Group 92">
      <path id="Path_72" data-name="Path 72" d="M685.095-550.509a5.006,5.006,0,0,1,5,5v44.092a5.006,5.006,0,0,1-5,5h-64a5.006,5.006,0,0,1-5-5v-44.092a5.006,5.006,0,0,1,5-5h64m0-3h-64a8,8,0,0,0-8,8v44.092a8,8,0,0,0,8,8h64a8,8,0,0,0,8-8v-44.092a8,8,0,0,0-8-8Z" fill="#1239a5"/>
    </g>
    <g id="Group_93" data-name="Group 93">
      <path id="Path_73" data-name="Path 73" d="M675.156-551.517l-2.486-9.531a4.5,4.5,0,0,0-4.354-3.369H658.7a4.494,4.494,0,0,0-4.367,3.423l-2.265,9.138-2.912-.722,2.265-9.138a7.488,7.488,0,0,1,7.279-5.7h9.621a7.5,7.5,0,0,1,7.256,5.612l2.486,9.531Z" fill="#1239a5"/>
    </g>
    <g id="Group_94" data-name="Group 94">
      <rect id="Rectangle_43" data-name="Rectangle 43" width="11.747" height="3" transform="translate(613.904 -537.548)" fill="#1239a5"/>
    </g>
    <g id="Group_95" data-name="Group 95">
      <rect id="Rectangle_44" data-name="Rectangle 44" width="36.476" height="3" transform="translate(613.904 -505.65)" fill="#1239a5"/>
    </g>
    <g id="Group_96" data-name="Group 96">
      <rect id="Rectangle_45" data-name="Rectangle 45" width="15.858" height="3" transform="translate(676.577 -505.65)" fill="#1239a5"/>
    </g>
    <g id="Group_97" data-name="Group 97">
      <rect id="Rectangle_46" data-name="Rectangle 46" width="15.556" height="3" transform="translate(633.072 -537.548)" fill="#1239a5"/>
    </g>
    <g id="Group_98" data-name="Group 98">
      <rect id="Rectangle_47" data-name="Rectangle 47" width="13.832" height="3" transform="translate(678.192 -537.548)" fill="#1239a5"/>
    </g>
    <g id="Group_99" data-name="Group 99">
      <path id="Path_74" data-name="Path 74" d="M663.494-541.263a20.041,20.041,0,0,1,20,20.036,20.04,20.04,0,0,1-20,20.035,20.04,20.04,0,0,1-20-20.035,20.041,20.041,0,0,1,20-20.036m0-3a23.018,23.018,0,0,0-23,23.036,23.017,23.017,0,0,0,23,23.035,23.017,23.017,0,0,0,23-23.035,23.018,23.018,0,0,0-23-23.036Z" fill="#1239a5"/>
    </g>
    <g id="Group_100" data-name="Group 100">
      <path id="Path_75" data-name="Path 75" d="M663.538-535.024a13.8,13.8,0,0,1,13.77,13.8,13.8,13.8,0,0,1-13.77,13.8,13.8,13.8,0,0,1-13.771-13.8,13.8,13.8,0,0,1,13.771-13.8m0-3a16.783,16.783,0,0,0-16.771,16.8,16.783,16.783,0,0,0,16.771,16.8,16.783,16.783,0,0,0,16.77-16.8,16.783,16.783,0,0,0-16.77-16.8Z" fill="#1239a5"/>
    </g>
    <g id="Group_101" data-name="Group 101">
      <path id="Path_76" data-name="Path 76" d="M663.494-528.906a7.673,7.673,0,0,0-7.667,7.679,7.672,7.672,0,0,0,7.667,7.678,7.672,7.672,0,0,0,7.666-7.678,7.672,7.672,0,0,0-7.666-7.679Z" fill="#1239a5"/>
    </g>
    <g id="Group_103" data-name="Group 103">
      <g id="Group_102" data-name="Group 102">
        <path id="Path_77" data-name="Path 77" d="M629.387-537.546a1.5,1.5,0,0,1,1.491,1.5,1.5,1.5,0,0,1-1.491,1.5,1.5,1.5,0,0,1-1.49-1.5,1.5,1.5,0,0,1,1.49-1.5m0-3a4.493,4.493,0,0,0-4.49,4.5,4.494,4.494,0,0,0,4.49,4.5,4.494,4.494,0,0,0,4.491-4.5,4.493,4.493,0,0,0-4.491-4.5Z" fill="#1239a5"/>
      </g>
    </g>
    <g id="Group_104" data-name="Group 104">
      <path id="Path_78" data-name="Path 78" d="M642.226-546.791a3,3,0,0,0-3,3.005,3,3,0,0,0,3,3,3,3,0,0,0,3-3,3,3,0,0,0-3-3.005Z" fill="#1239a5"/>
    </g>
    <g id="Group_105" data-name="Group 105">
      <path id="Path_79" data-name="Path 79" d="M639.112-553.008h-3a1.5,1.5,0,0,0-1.5-1.505h-6a1.5,1.5,0,0,0-1.5,1.505h-3a4.508,4.508,0,0,1,4.5-4.505h6A4.508,4.508,0,0,1,639.112-553.008Z" fill="#1239a5"/>
    </g>
  </g>
</svg>
