<svg xmlns="http://www.w3.org/2000/svg" width="80" height="80" viewBox="0 0 80 80">
  <g id="Group_67" data-name="Group 67" transform="translate(-358.693 570.528)">
    <g id="Group_52" data-name="Group 52">
      <path id="Path_42" data-name="Path 42" d="M412.193-495.028h-40a13.515,13.515,0,0,1-13.5-13.5v-44a13.515,13.515,0,0,1,13.5-13.5h40v3h-40a10.512,10.512,0,0,0-10.5,10.5v44a10.512,10.512,0,0,0,10.5,10.5h40Z" fill="#1239a5"/>
    </g>
    <g id="Group_53" data-name="Group 53">
      <path id="Path_43" data-name="Path 43" d="M432.693-567.528a3,3,0,0,1,3,3v68a3,3,0,0,1-3,3h-11.7a3,3,0,0,1-3-3v-68a3,3,0,0,1,3-3h11.7m0-3h-11.7a6,6,0,0,0-6,6v68a6,6,0,0,0,6,6h11.7a6,6,0,0,0,6-6v-68a6,6,0,0,0-6-6Z" fill="#1239a5"/>
    </g>
    <g id="Group_54" data-name="Group 54">
      <path id="Path_44" data-name="Path 44" d="M426.841-558.766a4.5,4.5,0,0,1,4.5,4.5,4.5,4.5,0,0,1-4.5,4.5,4.5,4.5,0,0,1-4.5-4.5,4.505,4.505,0,0,1,4.5-4.5m0-3a7.5,7.5,0,0,0-7.5,7.5,7.5,7.5,0,0,0,7.5,7.5,7.5,7.5,0,0,0,7.5-7.5,7.5,7.5,0,0,0-7.5-7.5Z" fill="#1239a5"/>
    </g>
    <g id="Group_55" data-name="Group 55">
      <path id="Path_45" data-name="Path 45" d="M426.841-557.266a3,3,0,0,0-3,3,3,3,0,0,0,3,3,3,3,0,0,0,3-3,3,3,0,0,0-3-3Z" fill="#1239a5"/>
    </g>
    <g id="Group_58" data-name="Group 58">
      <g id="Group_56" data-name="Group 56">
        <path id="Path_46" data-name="Path 46" d="M422.841-541.528a3,3,0,0,0-3,3,3,3,0,0,0,3,3,3,3,0,0,0,3-3,3,3,0,0,0-3-3Z" fill="#1239a5"/>
      </g>
      <g id="Group_57" data-name="Group 57">
        <path id="Path_47" data-name="Path 47" d="M430.841-541.528a3,3,0,0,0-3,3,3,3,0,0,0,3,3,3,3,0,0,0,3-3,3,3,0,0,0-3-3Z" fill="#1239a5"/>
      </g>
    </g>
    <g id="Group_66" data-name="Group 66">
      <g id="Group_61" data-name="Group 61">
        <g id="Group_59" data-name="Group 59">
          <path id="Path_48" data-name="Path 48" d="M387.008-546.536h-1.793v3.07h-1.322v1.569h1.322v9.927h5v-1.591h-3.2V-541.9h3.54v-1.569h-3.54v-3.07Z" fill="#1239a5"/>
        </g>
        <g id="Group_60" data-name="Group 60">
          <path id="Path_49" data-name="Path 49" d="M402.379-543.466h-1.949l-3.5,9.9h-.09l-3.473-9.9h-1.994l4.347,11.5h2.33l4.325-11.5Z" fill="#1239a5"/>
        </g>
      </g>
      <g id="Group_65" data-name="Group 65">
        <g id="Group_62" data-name="Group 62">
          <path id="Path_50" data-name="Path 50" d="M376.454-531.684h-1.793v16.8h1.681v-.762a9.763,9.763,0,0,0-.068-1.254h.068a4.911,4.911,0,0,0,4.548,2.375,5.753,5.753,0,0,0,5.939-6.117,5.765,5.765,0,0,0-5.961-6.095,5.125,5.125,0,0,0-4.414,2.285h-.067a8.6,8.6,0,0,0,.067-1.255v-5.982Zm4.235,15.551a4.271,4.271,0,0,1-4.3-4.5,4.245,4.245,0,0,1,4.3-4.5,4.271,4.271,0,0,1,4.3,4.5,4.3,4.3,0,0,1-4.3,4.5Z" fill="#1239a5"/>
        </g>
        <g id="Group_63" data-name="Group 63">
          <path id="Path_51" data-name="Path 51" d="M394.716-526.732a5.931,5.931,0,0,0-6.073,6.095,5.924,5.924,0,0,0,6.073,6.117,5.937,5.937,0,0,0,6.072-6.117,5.931,5.931,0,0,0-6.072-6.095Zm0,10.6a4.245,4.245,0,0,1-4.235-4.5,4.231,4.231,0,0,1,4.235-4.5,4.249,4.249,0,0,1,4.257,4.5,4.262,4.262,0,0,1-4.257,4.5Z" fill="#1239a5"/>
        </g>
        <g id="Group_64" data-name="Group 64">
          <path id="Path_52" data-name="Path 52" d="M412.149-526.374h-2.084l-3.115,4.5h-.09l-3.092-4.5h-2.151l4.123,5.669-4.168,5.826h2.084l3.137-4.661h.09l3.2,4.661h2.106l-4.145-5.826,4.1-5.669Z" fill="#1239a5"/>
        </g>
      </g>
    </g>
  </g>
</svg>
