<svg xmlns="http://www.w3.org/2000/svg" width="80" height="80" viewBox="0 0 80 80">
  <g id="Group_91" data-name="Group 91" transform="translate(-514.295 570.528)">
    <g id="Group_75" data-name="Group 75">
      <path id="Path_56" data-name="Path 56" d="M531.383-547.737c6.255,0,11.344,5.925,11.344,13.208a14.823,14.823,0,0,1-1.629,6.814l-.076.146-.059.153-11.137,28.735-.034.088-.029.09c-.942,2.976-3.365,4.975-6.028,4.975-3.551,0-6.44-3.439-6.44-7.667,0-.276.012-.558.039-.853l2.7-32.231.011-.125v-.125c0-7.283,5.088-13.208,11.343-13.208m0-3c-7.921,0-14.343,7.256-14.343,16.208l-2.7,32.231c-.032.363-.049.73-.049,1.1,0,5.892,4.226,10.667,9.44,10.667,4.1,0,7.583-2.948,8.888-7.069h0l11.136-28.735a17.763,17.763,0,0,0,1.967-8.2c0-8.952-6.421-16.208-14.344-16.208Z" fill="#1239a5"/>
    </g>
    <g id="Group_76" data-name="Group 76">
      <path id="Path_57" data-name="Path 57" d="M577.205-547.737c6.255,0,11.344,5.925,11.344,13.208v.125l.01.125,2.679,32.065,0,.035,0,.036a8.931,8.931,0,0,1,.05.948c0,4.228-2.889,7.667-6.44,7.667a6.621,6.621,0,0,1-5.993-4.863l-.047-.138-.029-.067-11.159-28.817-.06-.154-.076-.146a14.827,14.827,0,0,1-1.629-6.816c0-7.283,5.088-13.208,11.343-13.208m0-3c-7.921,0-14.343,7.256-14.343,16.208a17.771,17.771,0,0,0,1.967,8.2l11.183,28.878,0,.006c1.342,4.042,4.794,6.918,8.84,6.918,5.213,0,9.44-4.775,9.44-10.667a11.81,11.81,0,0,0-.068-1.269h0l-2.679-32.065c0-8.952-6.422-16.208-14.344-16.208Z" fill="#1239a5"/>
    </g>
    <g id="Group_77" data-name="Group 77">
      <path id="Path_58" data-name="Path 58" d="M525-546.509a1.468,1.468,0,0,1-.286-.028,1.5,1.5,0,0,1-1.188-1.756l.815-4.224a4.489,4.489,0,0,1,4.275-3.767h5.578a4.487,4.487,0,0,1,4.284,3.811l.771,4.192a1.5,1.5,0,0,1-1.2,1.747,1.5,1.5,0,0,1-1.747-1.2l-.771-4.192a1.5,1.5,0,0,0-1.333-1.354h-5.578a1.5,1.5,0,0,0-1.33,1.336l-.815,4.223A1.5,1.5,0,0,1,525-546.509Z" fill="#1239a5"/>
    </g>
    <g id="Group_78" data-name="Group 78">
      <path id="Path_59" data-name="Path 59" d="M577.205-517.678a13.636,13.636,0,0,1-3.93-.579,1.5,1.5,0,0,1-1-1.868,1.5,1.5,0,0,1,1.869-1.005,10.608,10.608,0,0,0,3.064.452c6.467,0,11.344-5.937,11.344-13.809a1.5,1.5,0,0,1,1.5-1.5,1.5,1.5,0,0,1,1.5,1.5C591.549-524.905,585.383-517.678,577.205-517.678Z" fill="#1239a5"/>
    </g>
    <g id="Group_79" data-name="Group 79">
      <path id="Path_60" data-name="Path 60" d="M531.271-517.678c-8.113,0-14.231-7.227-14.231-16.809a1.5,1.5,0,0,1,1.5-1.5,1.5,1.5,0,0,1,1.5,1.5c0,7.872,4.828,13.809,11.231,13.809a10.63,10.63,0,0,0,3.064-.451,1.5,1.5,0,0,1,1.869,1,1.5,1.5,0,0,1-1,1.869A13.615,13.615,0,0,1,531.271-517.678Z" fill="#1239a5"/>
    </g>
    <g id="Group_80" data-name="Group 80">
      <path id="Path_61" data-name="Path 61" d="M583.593-546.509a1.5,1.5,0,0,1-1.471-1.216l-.815-4.223a1.5,1.5,0,0,0-1.33-1.336H574.4a1.5,1.5,0,0,0-1.333,1.353l-.771,4.193a1.5,1.5,0,0,1-1.747,1.2,1.5,1.5,0,0,1-1.2-1.747l.771-4.192a4.487,4.487,0,0,1,4.284-3.811h5.578a4.489,4.489,0,0,1,4.275,3.767l.815,4.224a1.5,1.5,0,0,1-1.188,1.756A1.468,1.468,0,0,1,583.593-546.509Z" fill="#1239a5"/>
    </g>
    <g id="Group_81" data-name="Group 81">
      <path id="Path_62" data-name="Path 62" d="M568.832-545.184h-28.84a1.5,1.5,0,0,1-1.5-1.5,1.5,1.5,0,0,1,1.5-1.5h28.84a1.5,1.5,0,0,1,1.5,1.5A1.5,1.5,0,0,1,568.832-545.184Z" fill="#1239a5"/>
    </g>
    <g id="Group_82" data-name="Group 82">
      <path id="Path_63" data-name="Path 63" d="M569.67-514.39H538.587a1.5,1.5,0,0,1-1.5-1.5,1.5,1.5,0,0,1,1.5-1.5H569.67a1.5,1.5,0,0,1,1.5,1.5A1.5,1.5,0,0,1,569.67-514.39Z" fill="#1239a5"/>
    </g>
    <g id="Group_83" data-name="Group 83">
      <path id="Path_64" data-name="Path 64" d="M558.133-532.987h-6.912a1.5,1.5,0,0,1-1.5-1.5,1.5,1.5,0,0,1,1.5-1.5h6.912a1.5,1.5,0,0,1,1.5,1.5A1.5,1.5,0,0,1,558.133-532.987Z" fill="#1239a5"/>
    </g>
    <g id="Group_84" data-name="Group 84">
      <path id="Path_65" data-name="Path 65" d="M558.45-527.233h-6.912a1.5,1.5,0,0,1-1.5-1.5,1.5,1.5,0,0,1,1.5-1.5h6.912a1.5,1.5,0,0,1,1.5,1.5A1.5,1.5,0,0,1,558.45-527.233Z" fill="#1239a5"/>
    </g>
    <g id="Group_85" data-name="Group 85">
      <path id="Path_66" data-name="Path 66" d="M577.208-541.9a.5.5,0,0,1,.5.5.5.5,0,0,1-.5.5.5.5,0,0,1-.5-.5.5.5,0,0,1,.5-.5m0-3a3.5,3.5,0,0,0-3.5,3.5,3.5,3.5,0,0,0,3.5,3.5,3.5,3.5,0,0,0,3.5-3.5,3.5,3.5,0,0,0-3.5-3.5Z" fill="#1239a5"/>
    </g>
    <g id="Group_86" data-name="Group 86">
      <path id="Path_67" data-name="Path 67" d="M577.208-527.333a.5.5,0,0,1,.5.5.5.5,0,0,1-.5.5.5.5,0,0,1-.5-.5.5.5,0,0,1,.5-.5m0-3a3.5,3.5,0,0,0-3.5,3.5,3.5,3.5,0,0,0,3.5,3.5,3.5,3.5,0,0,0,3.5-3.5,3.5,3.5,0,0,0-3.5-3.5Z" fill="#1239a5"/>
    </g>
    <g id="Group_87" data-name="Group 87">
      <path id="Path_68" data-name="Path 68" d="M570.82-534.475a.5.5,0,0,1,.5.5.5.5,0,0,1-.5.5.5.5,0,0,1-.5-.5.5.5,0,0,1,.5-.5m0-3a3.5,3.5,0,0,0-3.5,3.5,3.5,3.5,0,0,0,3.5,3.5,3.5,3.5,0,0,0,3.5-3.5,3.5,3.5,0,0,0-3.5-3.5Z" fill="#1239a5"/>
    </g>
    <g id="Group_88" data-name="Group 88">
      <path id="Path_69" data-name="Path 69" d="M583.807-534.475a.5.5,0,0,1,.5.5.5.5,0,0,1-.5.5.5.5,0,0,1-.5-.5.5.5,0,0,1,.5-.5m0-3a3.5,3.5,0,0,0-3.5,3.5,3.5,3.5,0,0,0,3.5,3.5,3.5,3.5,0,0,0,3.5-3.5,3.5,3.5,0,0,0-3.5-3.5Z" fill="#1239a5"/>
    </g>
    <g id="Group_89" data-name="Group 89">
      <path id="Path_70" data-name="Path 70" d="M531.464-541.116a1.224,1.224,0,0,1,.871.36,1.227,1.227,0,0,1,.361.872v4.036h4.036a1.234,1.234,0,0,1,1.232,1.232,1.227,1.227,0,0,1-.362.872,1.223,1.223,0,0,1-.87.36H532.7v4.036a1.234,1.234,0,0,1-1.232,1.232,1.234,1.234,0,0,1-1.232-1.232v-4.036H526.2a1.234,1.234,0,0,1-1.232-1.232,1.234,1.234,0,0,1,1.232-1.232h4.036v-4.036a1.234,1.234,0,0,1,1.232-1.232m0-3a4.232,4.232,0,0,0-4.232,4.232v1.036H526.2a4.232,4.232,0,0,0-4.232,4.232,4.232,4.232,0,0,0,4.232,4.232h1.036v1.036a4.232,4.232,0,0,0,4.232,4.232,4.232,4.232,0,0,0,4.232-4.232v-1.036h1.036a4.217,4.217,0,0,0,2.993-1.24,4.218,4.218,0,0,0,1.239-2.992,4.232,4.232,0,0,0-4.232-4.232H535.7v-1.036a4.218,4.218,0,0,0-1.239-2.993,4.218,4.218,0,0,0-2.993-1.239Z" fill="#1239a5"/>
    </g>
    <g id="Group_90" data-name="Group 90">
      <path id="Path_71" data-name="Path 71" d="M554.295-550.949a1.5,1.5,0,0,1-1.5-1.5,3.266,3.266,0,0,0-2.936-3.512h-5.772a3.966,3.966,0,0,1-3.8-4.1,3.965,3.965,0,0,1,3.8-4.1h20.985a1.553,1.553,0,0,0,1.315-1.681,1.553,1.553,0,0,0-1.315-1.681h-7.131a1.5,1.5,0,0,1-1.5-1.5,1.5,1.5,0,0,1,1.5-1.5h7.131a4.515,4.515,0,0,1,4.315,4.681,4.515,4.515,0,0,1-4.315,4.681H544.087c-.436,0-.8.505-.8,1.1s.367,1.1.8,1.1h5.772c3.273,0,5.936,2.921,5.936,6.512A1.5,1.5,0,0,1,554.295-550.949Z" fill="#1239a5"/>
    </g>
  </g>
</svg>
