<svg xmlns="http://www.w3.org/2000/svg" width="80" height="80" viewBox="0 0 80 80">
  <g id="Group_51" data-name="Group 51" transform="translate(-260.893 570.528)">
    <g id="Group_42" data-name="Group 42">
      <path id="Path_33" data-name="Path 33" d="M300.524-490.528h-34.6a5.056,5.056,0,0,1-5.028-5.07v-69.86a5.056,5.056,0,0,1,5.028-5.07H311.71a5.056,5.056,0,0,1,5.029,5.07v6.264h-2.963v-6.264a2.077,2.077,0,0,0-2.066-2.082H265.921a2.076,2.076,0,0,0-2.065,2.082v69.86a2.077,2.077,0,0,0,2.065,2.083h34.6Z" fill="#1239a5"/>
    </g>
    <g id="Group_43" data-name="Group 43">
      <path id="Path_34" data-name="Path 34" d="M300.359-502.133H268.277a1.488,1.488,0,0,1-1.482-1.494V-561.44a1.488,1.488,0,0,1,1.482-1.494h39.638a3.476,3.476,0,0,1,3.456,3.486v.254h-2.963v-.254a.5.5,0,0,0-.493-.5H269.758v54.826h30.6Z" fill="#1239a5"/>
    </g>
    <g id="Group_44" data-name="Group 44">
      <path id="Path_35" data-name="Path 35" d="M313.251-559.821" fill="#1239a5"/>
    </g>
    <g id="Group_45" data-name="Group 45">
      <path id="Path_36" data-name="Path 36" d="M290.266-563.817h-2.837a1.488,1.488,0,0,1-1.482-1.494,1.488,1.488,0,0,1,1.482-1.494h2.837a1.488,1.488,0,0,1,1.481,1.494A1.488,1.488,0,0,1,290.266-563.817Z" fill="#1239a5"/>
    </g>
    <g id="Group_46" data-name="Group 46">
      <path id="Path_37" data-name="Path 37" d="M325.628-550.308h-5.671a1.488,1.488,0,0,1-1.482-1.493,1.488,1.488,0,0,1,1.482-1.494h5.671a1.487,1.487,0,0,1,1.481,1.494A1.487,1.487,0,0,1,325.628-550.308Z" fill="#1239a5"/>
    </g>
    <g id="Group_47" data-name="Group 47">
      <path id="Path_38" data-name="Path 38" d="M288.847-500.735a2.766,2.766,0,0,0-2.754,2.778,2.765,2.765,0,0,0,2.754,2.777,2.766,2.766,0,0,0,2.755-2.777,2.766,2.766,0,0,0-2.755-2.778Z" fill="#1239a5"/>
    </g>
    <g id="Group_48" data-name="Group 48">
      <path id="Path_39" data-name="Path 39" d="M322.474-500.535a2.767,2.767,0,0,0-2.755,2.778,2.767,2.767,0,0,0,2.755,2.778,2.766,2.766,0,0,0,2.754-2.778,2.766,2.766,0,0,0-2.754-2.778Z" fill="#1239a5"/>
    </g>
    <g id="Group_49" data-name="Group 49">
      <path id="Path_40" data-name="Path 40" d="M334.968-554.539a2.978,2.978,0,0,1,2.963,2.987v54.716a2.979,2.979,0,0,1-2.963,2.988H310.617a2.979,2.979,0,0,1-2.963-2.988v-54.716a2.978,2.978,0,0,1,2.963-2.987h24.351m0-2.988H310.617a5.95,5.95,0,0,0-5.925,5.975v54.716a5.95,5.95,0,0,0,5.925,5.975h24.351a5.95,5.95,0,0,0,5.925-5.975v-54.716a5.95,5.95,0,0,0-5.925-5.975Z" fill="#1239a5"/>
    </g>
    <g id="Group_50" data-name="Group 50">
      <path id="Path_41" data-name="Path 41" d="M333.209-546.017v41.643H312.376v-41.643h20.833m.987-2.988H311.389a1.984,1.984,0,0,0-1.976,1.992v43.635a1.984,1.984,0,0,0,1.976,1.992H334.2a1.984,1.984,0,0,0,1.976-1.992v-43.635a1.984,1.984,0,0,0-1.976-1.992Z" fill="#1239a5"/>
    </g>
  </g>
</svg>
