<svg xmlns="http://www.w3.org/2000/svg" width="257" height="50" viewBox="0 0 257 50">
  <g id="Logo" transform="translate(-100 -103)">
    <g id="Group_22" data-name="Group 22" transform="translate(49.674 103)">
      <g id="Group_17" data-name="Group 17">
        <path id="Path_21" data-name="Path 21" d="M95.532,31.133H78.6a2,2,0,0,1-1.829-2.809l7.6-17.191H61.532a2,2,0,0,1,0-4h25.9a2,2,0,0,1,1.829,2.808l-7.6,17.192H95.532a2,2,0,0,1,0,4Z" fill="#49b7d1"/>
      </g>
      <g id="Group_20" data-name="Group 20">
        <g id="Group_18" data-name="Group 18">
          <path id="Path_22" data-name="Path 22" d="M77.307,46h0m0-4a4,4,0,0,0-4,4h0a4,4,0,0,0,8,0h0a4,4,0,0,0-4-4Z" fill="#1239a5"/>
        </g>
        <g id="Group_19" data-name="Group 19">
          <path id="Path_23" data-name="Path 23" d="M89.378,46h0m0-4a4,4,0,1,0,4,4,4,4,0,0,0-4-4Z" fill="#1239a5"/>
        </g>
      </g>
      <g id="Group_21" data-name="Group 21">
        <path id="Path_24" data-name="Path 24" d="M98.326,38H68.359A2,2,0,0,1,66.5,35.251l7.037-17.43H63.1a2,2,0,0,1-1.94-1.511L58.057,4H52.326a2,2,0,0,1,0-4h7.288a2,2,0,0,1,1.94,1.511l3.1,12.31H76.506a2,2,0,0,1,1.854,2.748L71.323,34h27a2,2,0,1,1,0,4Z" fill="#1239a5"/>
      </g>
    </g>
    <g id="Group_206" data-name="Group 206">
      <path id="Path_25" data-name="Path 25" d="M1.656-.055H5.87V-7.21h5.77V-.055h4.214V-18H11.639v7.107H5.87V-18H1.656ZM17.983-6.277c0,3.924,2.466,6.6,5.889,6.6a4.511,4.511,0,0,0,3.711-1.579h.1a5.169,5.169,0,0,0-.048.742v.455h3.807V-12.522H27.632v.407a3.237,3.237,0,0,0,.048.67h-.1a4.26,4.26,0,0,0-3.519-1.46C20.593-12.9,17.983-10.225,17.983-6.277Zm6.823,2.943a2.706,2.706,0,0,1-2.633-3.015,2.669,2.669,0,0,1,2.633-2.943,2.691,2.691,0,0,1,2.681,2.943A2.727,2.727,0,0,1,24.807-3.334ZM47.67-6.277c0-3.948-2.466-6.628-5.865-6.628a4.635,4.635,0,0,0-3.711,1.555h-.12a4.567,4.567,0,0,0,.048-.67v-.5H34.215V5.448h4.118V.064a4.321,4.321,0,0,0-.048-.933h.1a4.114,4.114,0,0,0,3.232,1.2C45.108.327,47.67-2.353,47.67-6.277ZM40.847-9.292A2.681,2.681,0,0,1,43.5-6.325a2.689,2.689,0,0,1-2.657,2.991,2.689,2.689,0,0,1-2.657-2.991A2.681,2.681,0,0,1,40.847-9.292ZM60.909-.055V-12.522H49.777V5.448h4.166v-5.5Zm-6.967-8.9h2.945v5.288H53.942ZM65,5.448h9.864v-17.97H70.7v7.3a1.459,1.459,0,0,1-1.484,1.531,1.465,1.465,0,0,1-1.508-1.531v-7.3H63.542v7.609A4.605,4.605,0,0,0,68.187-.032a3.25,3.25,0,0,0,2.466-.814h.1a9.265,9.265,0,0,0-.048,1V1.835H65ZM87.1-13.527a1.244,1.244,0,0,1,1.365-1.2c.862,0,1.7.383,2.322,1.986l3.615-1.34a5.549,5.549,0,0,0-5.865-4.307,5.183,5.183,0,0,0-5.53,5.1c0,2.9,1.7,3.948,3.088,4.786l2.945,1.795c.982.6,1.221,1.149,1.221,1.795a1.466,1.466,0,0,1-1.6,1.484c-1.676,0-2.346-1.723-2.562-2.8L82.432-4.817A5.735,5.735,0,0,0,88.56.327c3.5,0,5.961-2.106,5.961-5.312A5.515,5.515,0,0,0,91.6-9.914l-3.376-2.058C87.579-12.355,87.1-12.737,87.1-13.527ZM100.962-.055v-8.9h2.9v8.9H108V-12.522h-7.039V-18H96.8V-.055ZM116.81.327a6.417,6.417,0,0,0,6.727-6.6A6.423,6.423,0,0,0,116.81-12.9a6.423,6.423,0,0,0-6.727,6.628A6.417,6.417,0,0,0,116.81.327Zm0-3.661c-1.556,0-2.562-1.2-2.562-3.015,0-1.771,1.005-2.943,2.562-2.943s2.562,1.172,2.562,2.943C119.372-4.53,118.366-3.334,116.81-3.334Zm22.265-2.943c0-3.948-2.466-6.628-5.865-6.628A4.635,4.635,0,0,0,129.5-11.35h-.12a4.564,4.564,0,0,0,.048-.67v-.5H125.62V5.448h4.118V.064a4.321,4.321,0,0,0-.048-.933h.1a4.114,4.114,0,0,0,3.232,1.2C136.513.327,139.075-2.353,139.075-6.277Zm-6.823-3.015a2.681,2.681,0,0,1,2.657,2.967,2.689,2.689,0,0,1-2.657,2.991,2.689,2.689,0,0,1-2.657-2.991A2.681,2.681,0,0,1,132.252-9.292ZM152.314-.055V-12.522H141.182V5.448h4.166v-5.5Zm-6.967-8.9h2.945v5.288h-2.945Zm11.8-4.786a2.416,2.416,0,0,0,2.442-2.417,2.426,2.426,0,0,0-2.442-2.393,2.406,2.406,0,0,0-2.418,2.393A2.4,2.4,0,0,0,157.15-13.742ZM159.257-.055V-12.522h-4.166V-.055Zm2.777-12.467V-.055H166.2v-8.9h2.873v8.9h4.166V-12.522Zm13.311,6.006c0,3.781,2.49,6.341,5.913,6.341a4.093,4.093,0,0,0,3.232-1.244h.1a8.017,8.017,0,0,0-.024.885V1.835h-5.1V5.448h9.193v-17.97h-3.807v.479a4.782,4.782,0,0,0,.048.718h-.1a4.444,4.444,0,0,0-3.663-1.579C177.787-12.9,175.345-10.345,175.345-6.516ZM182.1-9.292a2.533,2.533,0,0,1,2.61,2.728,2.553,2.553,0,0,1-2.61,2.752,2.535,2.535,0,0,1-2.586-2.752A2.528,2.528,0,0,1,182.1-9.292Z" transform="translate(168.344 124.552)" fill="#1239a5"/>
      <path id="Path_100" data-name="Path 100" d="M.7-10.807H4.051V.2H6.1V-10.807H9.435v-1.7H.7ZM19.446.2H21.5V-12.507H19.446v5.449H13.558v-5.449H11.505V.2h2.053V-5.358h5.888ZM31.114-12.526H24.2V.2h6.914V-1.5H26.252V-5.395h4.321V-7.1H26.252v-3.73h4.862Zm19.3,6.345a6.287,6.287,0,0,0-6.392-6.491,6.308,6.308,0,0,0-6.392,6.491A6.312,6.312,0,0,0,44.024.328,6.291,6.291,0,0,0,50.416-6.181Zm-10.677,0c0-2.871,1.8-4.662,4.285-4.662s4.285,1.792,4.285,4.662-1.8,4.7-4.285,4.7S39.738-3.311,39.738-6.181Zm20.923-6.345v9.471l-6.176-9.471H52.432V.2h2.053V-9.289L60.661.2h2.053V-12.526Zm4.754.018V.2H71.7V-1.482H67.467V-12.507ZM73.409.2h2.053V-12.507H73.409ZM86.391-12.526v9.471l-6.176-9.471H78.163V.2h2.053V-9.289L86.391.2h2.053V-12.526Zm11.668,0H91.145V.2h6.914V-1.5H93.2V-5.395h4.321V-7.1H93.2v-3.73h4.862ZM113.706-3.4c0-4.644-6.626-2.852-6.626-5.723,0-1.225.918-1.81,2.107-1.774a1.966,1.966,0,0,1,2.107,1.682h2.269c-.18-2.176-1.873-3.456-4.267-3.456-2.557,0-4.3,1.39-4.3,3.62,0,4.681,6.644,2.688,6.644,5.759,0,1.079-.81,1.865-2.251,1.865a2.019,2.019,0,0,1-2.233-1.883h-2.2c0,2.249,1.927,3.639,4.429,3.639C112.175.328,113.706-1.5,113.706-3.4Zm1.783-7.405h3.349V.2h2.053V-10.807h3.331v-1.7h-8.733Zm22.9,4.626A6.287,6.287,0,0,0,132-12.672a6.308,6.308,0,0,0-6.392,6.491A6.312,6.312,0,0,0,132,.328,6.291,6.291,0,0,0,138.392-6.181Zm-10.677,0c0-2.871,1.8-4.662,4.285-4.662s4.285,1.792,4.285,4.662-1.8,4.7-4.285,4.7S127.714-3.311,127.714-6.181ZM147.052-8.7a2.035,2.035,0,0,1-2.323,2.158h-2.269v-4.26h2.269C146.332-10.807,147.052-9.984,147.052-8.7Zm-6.644-3.8V.2h2.053V-4.883h1.567L146.908.2h2.449l-3.1-5.266a3.607,3.607,0,0,0,2.9-3.639c0-2.066-1.458-3.8-4.429-3.8Zm18.294-.018h-6.914V.2H158.7V-1.5H153.84V-5.395h4.321V-7.1H153.84v-3.73H158.7Z" transform="translate(169.298 149.672)" fill="#0b0c14" opacity="0.3"/>
    </g>
  </g>
</svg>
