<svg id="Icon_feather-shopping-cart" data-name="Icon feather-shopping-cart" xmlns="http://www.w3.org/2000/svg" width="27" height="26" viewBox="0 0 27 26">
  <path id="Path_14" data-name="Path 14" d="M14.182,31.1A1.091,1.091,0,1,1,13.091,30,1.093,1.093,0,0,1,14.182,31.1Z" transform="translate(-2.864 -7.69)" fill="none" stroke="#3f5b6c" stroke-linecap="round" stroke-linejoin="round" stroke-width="3"/>
  <path id="Path_15" data-name="Path 15" d="M30.682,31.1A1.091,1.091,0,1,1,29.591,30,1.093,1.093,0,0,1,30.682,31.1Z" transform="translate(-7.364 -7.69)" fill="none" stroke="#3f5b6c" stroke-linecap="round" stroke-linejoin="round" stroke-width="3"/>
  <path id="Path_16" data-name="Path 16" d="M1.5,1.5H5.864L8.787,16.165a2.184,2.184,0,0,0,2.182,1.763h10.6a2.184,2.184,0,0,0,2.182-1.763L25.5,6.976H6.955" fill="none" stroke="#3f5b6c" stroke-linecap="round" stroke-linejoin="round" stroke-width="3"/>
</svg>
