<svg xmlns="http://www.w3.org/2000/svg" width="27" height="22" viewBox="0 0 27 22">
  <path id="Icon_awesome-tags" data-name="Icon awesome-tags" d="M21.007,9.708,12.068.6A2.007,2.007,0,0,0,10.636,0H2.025A2.044,2.044,0,0,0,0,2.063v8.771a2.082,2.082,0,0,0,.593,1.458l8.939,9.1a2,2,0,0,0,2.864,0l8.611-8.771a2.09,2.09,0,0,0,0-2.917ZM4.725,6.875A2.063,2.063,0,1,1,6.75,4.813,2.044,2.044,0,0,1,4.725,6.875Zm21.682,5.75L17.8,21.4a2,2,0,0,1-2.864,0l-.015-.015L22.26,13.9a3.918,3.918,0,0,0,0-5.469L13.981,0h2.055a2.007,2.007,0,0,1,1.432.6l8.939,9.1a2.09,2.09,0,0,1,0,2.917Z" fill="#49b7d1"/>
</svg>
