<svg xmlns="http://www.w3.org/2000/svg" width="22" height="18" viewBox="0 0 22 18">
  <path id="Icon_awesome-truck" data-name="Icon awesome-truck" d="M21.45,12.375H20.9v-3.8a1.707,1.707,0,0,0-.485-1.192L16.981,3.871a1.632,1.632,0,0,0-1.165-.5H14.3V1.688A1.669,1.669,0,0,0,12.65,0h-11A1.669,1.669,0,0,0,0,1.688v11.25a1.669,1.669,0,0,0,1.65,1.688H2.2A3.339,3.339,0,0,0,5.5,18a3.339,3.339,0,0,0,3.3-3.375h4.4a3.3,3.3,0,1,0,6.6,0h1.65a.558.558,0,0,0,.55-.562V12.937A.558.558,0,0,0,21.45,12.375ZM5.5,16.312a1.688,1.688,0,1,1,1.65-1.687A1.669,1.669,0,0,1,5.5,16.312Zm11,0a1.688,1.688,0,1,1,1.65-1.687A1.669,1.669,0,0,1,16.5,16.312ZM19.25,9H14.3V5.063h1.516L19.25,8.575Z" fill="#49b7d1"/>
</svg>
